# xmcd CD database file
#
# Track frame offsets:
#	150
#	15828
#	28765
#	45098
#	62727
#	86677
#	104118
#	123626
#	139177
#	151436
#	172990
#
# Disc length: 2571 seconds
#
# Revision: 0
# Processed by: cddbd v1.5.2PL0 Copyright (c) Steve Scherf et al.
# Submitted via: CDex 1.70beta2
#
DISCID=890a090b
DTITLE=Sugarland - Enjoy The Ride
DYEAR=2006
DGENRE=Country
TTITLE0=Settlin'
TTITLE1=County Line
TTITLE2=Want To
TTITLE3=Everyday America
TTITLE4=Happy Ending
TTITLE5=These Are The Days
TTITLE6=One Blue Sky
TTITLE7=April Showers
TTITLE8=Mean Girls
TTITLE9=Stay
TTITLE10=Sugarland
EXTD=YEAR: 2006
EXTT0=
EXTT1=
EXTT2=
EXTT3=
EXTT4=
EXTT5=
EXTT6=
EXTT7=
EXTT8=
EXTT9=
EXTT10=
PLAYORDER=
